G04 #@! TF.GenerationSoftware,KiCad,Pcbnew,8.0.5*
G04 #@! TF.CreationDate,2024-10-10T13:20:31+02:00*
G04 #@! TF.ProjectId,LED_SINGLE_Board,4c45445f-5349-44e4-974c-455f426f6172,rev?*
G04 #@! TF.SameCoordinates,Original*
G04 #@! TF.FileFunction,Copper,L1,Top*
G04 #@! TF.FilePolarity,Positive*
%FSLAX46Y46*%
G04 Gerber Fmt 4.6, Leading zero omitted, Abs format (unit mm)*
G04 Created by KiCad (PCBNEW 8.0.5) date 2024-10-10 13:20:31*
%MOMM*%
%LPD*%
G01*
G04 APERTURE LIST*
G04 #@! TA.AperFunction,SMDPad,CuDef*
%ADD10R,0.500000X2.700000*%
G04 #@! TD*
G04 #@! TA.AperFunction,SMDPad,CuDef*
%ADD11R,1.000000X2.700000*%
G04 #@! TD*
G04 #@! TA.AperFunction,SMDPad,CuDef*
%ADD12R,2.000000X2.000000*%
G04 #@! TD*
G04 #@! TA.AperFunction,Conductor*
%ADD13C,0.700000*%
G04 #@! TD*
G04 #@! TA.AperFunction,Conductor*
%ADD14C,0.600000*%
G04 #@! TD*
G04 APERTURE END LIST*
D10*
X42300000Y-41500000D03*
X44500000Y-41500000D03*
D11*
X43400000Y-41500000D03*
D12*
X57000000Y-68500000D03*
X30000000Y-68500000D03*
D13*
X57000000Y-68500000D02*
X57000000Y-43000000D01*
X55500000Y-41500000D02*
X44670000Y-41500000D01*
X57000000Y-43000000D02*
X55500000Y-41500000D01*
D14*
X31500000Y-41500000D02*
X42400000Y-41500000D01*
D13*
X30000000Y-43000000D02*
X30000000Y-68500000D01*
D14*
X30000000Y-43000000D02*
X31500000Y-41500000D01*
G04 #@! TA.AperFunction,Conductor*
G36*
X59943039Y-25019685D02*
G01*
X59988794Y-25072489D01*
X60000000Y-25124000D01*
X60000000Y-39376000D01*
X59980315Y-39443039D01*
X59927511Y-39488794D01*
X59876000Y-39500000D01*
X27124000Y-39500000D01*
X27056961Y-39480315D01*
X27011206Y-39427511D01*
X27000000Y-39376000D01*
X27000000Y-30596762D01*
X40849500Y-30596762D01*
X40849500Y-30883237D01*
X40881572Y-31167891D01*
X40945317Y-31447181D01*
X40945321Y-31447193D01*
X41039929Y-31717565D01*
X41039935Y-31717579D01*
X41164223Y-31975666D01*
X41164225Y-31975669D01*
X41316634Y-32218227D01*
X41495243Y-32442195D01*
X41697805Y-32644757D01*
X41921773Y-32823366D01*
X42164331Y-32975775D01*
X42422428Y-33100068D01*
X42422434Y-33100070D01*
X42692806Y-33194678D01*
X42692818Y-33194682D01*
X42972102Y-33258426D01*
X42972105Y-33258426D01*
X42972108Y-33258427D01*
X42972107Y-33258427D01*
X43114434Y-33274463D01*
X43256763Y-33290499D01*
X43256764Y-33290500D01*
X43256767Y-33290500D01*
X43543236Y-33290500D01*
X43543236Y-33290499D01*
X43748815Y-33267336D01*
X43827891Y-33258427D01*
X43827892Y-33258426D01*
X43827898Y-33258426D01*
X44107182Y-33194682D01*
X44377572Y-33100068D01*
X44635669Y-32975775D01*
X44878227Y-32823366D01*
X45102195Y-32644757D01*
X45304757Y-32442195D01*
X45483366Y-32218227D01*
X45635775Y-31975669D01*
X45760068Y-31717572D01*
X45854682Y-31447182D01*
X45918426Y-31167898D01*
X45950500Y-30883233D01*
X45950500Y-30596767D01*
X45918426Y-30312102D01*
X45854682Y-30032818D01*
X45760068Y-29762428D01*
X45635775Y-29504331D01*
X45483366Y-29261773D01*
X45304757Y-29037805D01*
X45102195Y-28835243D01*
X44878227Y-28656634D01*
X44635669Y-28504225D01*
X44635666Y-28504223D01*
X44377579Y-28379935D01*
X44377565Y-28379929D01*
X44107193Y-28285321D01*
X44107181Y-28285317D01*
X43827891Y-28221572D01*
X43827892Y-28221572D01*
X43543237Y-28189500D01*
X43543233Y-28189500D01*
X43256767Y-28189500D01*
X43256762Y-28189500D01*
X42972108Y-28221572D01*
X42692818Y-28285317D01*
X42692806Y-28285321D01*
X42422434Y-28379929D01*
X42422420Y-28379935D01*
X42164333Y-28504223D01*
X41921774Y-28656633D01*
X41697805Y-28835242D01*
X41495242Y-29037805D01*
X41316633Y-29261774D01*
X41164223Y-29504333D01*
X41039935Y-29762420D01*
X41039929Y-29762434D01*
X40945321Y-30032806D01*
X40945317Y-30032818D01*
X40881572Y-30312108D01*
X40849500Y-30596762D01*
X27000000Y-30596762D01*
X27000000Y-25124000D01*
X27019685Y-25056961D01*
X27072489Y-25011206D01*
X27124000Y-25000000D01*
X59876000Y-25000000D01*
X59943039Y-25019685D01*
G37*
G04 #@! TD.AperFunction*
G04 #@! TA.AperFunction,Conductor*
G36*
X43692539Y-42014947D02*
G01*
X43738294Y-42067751D01*
X43749500Y-42119262D01*
X43749500Y-42897870D01*
X43749501Y-42897876D01*
X43755908Y-42957483D01*
X43806202Y-43092328D01*
X43806206Y-43092335D01*
X43892451Y-43207543D01*
X43892452Y-43207544D01*
X43892454Y-43207546D01*
X43969917Y-43265535D01*
X44011787Y-43321467D01*
X44019605Y-43364800D01*
X44019605Y-43500000D01*
X46500000Y-43500000D01*
X46500000Y-42624000D01*
X46519685Y-42556961D01*
X46572489Y-42511206D01*
X46624000Y-42500000D01*
X54948638Y-42500000D01*
X55015677Y-42519685D01*
X55036319Y-42536319D01*
X55963681Y-43463681D01*
X55997166Y-43525004D01*
X56000000Y-43551362D01*
X56000000Y-57876000D01*
X55980315Y-57943039D01*
X55927511Y-57988794D01*
X55876000Y-58000000D01*
X31124000Y-58000000D01*
X31056961Y-57980315D01*
X31011206Y-57927511D01*
X31000000Y-57876000D01*
X31000000Y-52116762D01*
X40849500Y-52116762D01*
X40849500Y-52403237D01*
X40881572Y-52687891D01*
X40945317Y-52967181D01*
X40945321Y-52967193D01*
X41039929Y-53237565D01*
X41039935Y-53237579D01*
X41164223Y-53495666D01*
X41164225Y-53495669D01*
X41316634Y-53738227D01*
X41495243Y-53962195D01*
X41697805Y-54164757D01*
X41921773Y-54343366D01*
X42164331Y-54495775D01*
X42422428Y-54620068D01*
X42422434Y-54620070D01*
X42692806Y-54714678D01*
X42692818Y-54714682D01*
X42972102Y-54778426D01*
X42972105Y-54778426D01*
X42972108Y-54778427D01*
X42972107Y-54778427D01*
X43114434Y-54794463D01*
X43256763Y-54810499D01*
X43256764Y-54810500D01*
X43256767Y-54810500D01*
X43543236Y-54810500D01*
X43543236Y-54810499D01*
X43748815Y-54787336D01*
X43827891Y-54778427D01*
X43827892Y-54778426D01*
X43827898Y-54778426D01*
X44107182Y-54714682D01*
X44377572Y-54620068D01*
X44635669Y-54495775D01*
X44878227Y-54343366D01*
X45102195Y-54164757D01*
X45304757Y-53962195D01*
X45483366Y-53738227D01*
X45635775Y-53495669D01*
X45760068Y-53237572D01*
X45854682Y-52967182D01*
X45918426Y-52687898D01*
X45950500Y-52403233D01*
X45950500Y-52116767D01*
X45918426Y-51832102D01*
X45854682Y-51552818D01*
X45760068Y-51282428D01*
X45635775Y-51024331D01*
X45483366Y-50781773D01*
X45304757Y-50557805D01*
X45102195Y-50355243D01*
X44878227Y-50176634D01*
X44635669Y-50024225D01*
X44635666Y-50024223D01*
X44377579Y-49899935D01*
X44377565Y-49899929D01*
X44107193Y-49805321D01*
X44107181Y-49805317D01*
X43827891Y-49741572D01*
X43827892Y-49741572D01*
X43543237Y-49709500D01*
X43543233Y-49709500D01*
X43256767Y-49709500D01*
X43256762Y-49709500D01*
X42972108Y-49741572D01*
X42692818Y-49805317D01*
X42692806Y-49805321D01*
X42422434Y-49899929D01*
X42422420Y-49899935D01*
X42164333Y-50024223D01*
X41921774Y-50176633D01*
X41697805Y-50355242D01*
X41495242Y-50557805D01*
X41316633Y-50781774D01*
X41164223Y-51024333D01*
X41039935Y-51282420D01*
X41039929Y-51282434D01*
X40945321Y-51552806D01*
X40945317Y-51552818D01*
X40881572Y-51832108D01*
X40849500Y-52116762D01*
X31000000Y-52116762D01*
X31000000Y-43551362D01*
X31019685Y-43484323D01*
X31036319Y-43463681D01*
X31963681Y-42536319D01*
X32025004Y-42502834D01*
X32051362Y-42500000D01*
X40376000Y-42500000D01*
X40443039Y-42519685D01*
X40488794Y-42572489D01*
X40500000Y-42624000D01*
X40500000Y-43500000D01*
X42823684Y-43500000D01*
X42823684Y-43332394D01*
X42843369Y-43265355D01*
X42873370Y-43233130D01*
X42907546Y-43207546D01*
X42993796Y-43092331D01*
X43044091Y-42957483D01*
X43050500Y-42897873D01*
X43050499Y-42119261D01*
X43070183Y-42052223D01*
X43122987Y-42006468D01*
X43174495Y-41995262D01*
X43625501Y-41995262D01*
X43692539Y-42014947D01*
G37*
G04 #@! TD.AperFunction*
G04 #@! TA.AperFunction,Conductor*
G36*
X44000000Y-39649875D02*
G01*
X43980315Y-39716914D01*
X43950312Y-39749141D01*
X43892452Y-39792455D01*
X43806206Y-39907664D01*
X43806202Y-39907671D01*
X43755910Y-40042513D01*
X43755909Y-40042517D01*
X43750883Y-40089258D01*
X43724147Y-40153806D01*
X43666754Y-40193654D01*
X43627595Y-40200000D01*
X43172405Y-40200000D01*
X43105366Y-40180315D01*
X43059611Y-40127511D01*
X43049115Y-40089253D01*
X43044091Y-40042516D01*
X42993797Y-39907671D01*
X42993793Y-39907664D01*
X42907547Y-39792455D01*
X42849688Y-39749141D01*
X42807818Y-39693207D01*
X42800000Y-39649875D01*
X42800000Y-39500000D01*
X44000000Y-39500000D01*
X44000000Y-39649875D01*
G37*
G04 #@! TD.AperFunction*
M02*
